<?xml version="1.0" encoding="UTF-8"?>
<!DOCTYPE svg PUBLIC "-//W3C//DTD SVG 1.1//EN" "http://www.w3.org/Graphics/SVG/1.1/DTD/svg11.dtd">
<!-- Creator: CorelDRAW X8 -->
<svg xmlns="http://www.w3.org/2000/svg" xml:space="preserve" width="65.5381mm" height="7.8825mm" version="1.1" style="shape-rendering:geometricPrecision; text-rendering:geometricPrecision; image-rendering:optimizeQuality; fill-rule:evenodd; clip-rule:evenodd"
viewBox="0 0 3122 376"
 xmlns:xlink="http://www.w3.org/1999/xlink">
 <defs>
  <style type="text/css">
   <![CDATA[
    .fil0 {fill:#F2D123;fill-rule:nonzero}
   ]]>
  </style>
 </defs>
 <g id="Layer_x0020_1">
  <metadata id="CorelCorpID_0Corel-Layer"/>
  <path class="fil0" d="M5 282l0 -49c15,10 28,16 36,20 9,3 17,5 24,5 7,0 12,-1 16,-4 4,-3 6,-7 6,-11 0,-4 -2,-7 -4,-10 -3,-3 -8,-5 -15,-8l-22 -8c-15,-5 -27,-12 -34,-21 -8,-9 -12,-20 -12,-33 0,-18 6,-32 19,-43 12,-11 29,-16 50,-16 9,0 19,1 30,4 11,2 23,7 36,12l-8 43c-8,-6 -16,-12 -26,-15 -9,-4 -18,-6 -26,-6 -6,0 -11,1 -15,4 -4,3 -6,7 -6,11 0,4 2,6 4,9 2,2 7,4 14,7l21 7c17,6 29,13 36,22 7,8 11,19 11,33 0,19 -6,35 -19,46 -13,11 -31,17 -53,17 -11,0 -21,-1 -32,-4 -10,-3 -21,-7 -31,-12z"/>
  <path id="1" class="fil0" d="M238 290l-61 0 0 -282 61 -8 0 137c9,-10 18,-17 28,-22 10,-5 21,-8 32,-8 19,0 33,6 43,16 10,11 15,27 15,48l0 119 -62 0 0 -102c0,-9 -2,-16 -5,-21 -4,-5 -10,-7 -17,-7 -11,0 -19,3 -25,11 -6,7 -9,17 -9,31l0 88z"/>
  <path id="2" class="fil0" d="M515 157c-4,-2 -7,-3 -10,-4 -4,-1 -7,-2 -10,-2 -12,0 -22,5 -30,15 -8,10 -12,22 -12,37 0,14 3,25 11,35 7,9 15,14 25,14 4,0 8,-1 13,-4 4,-2 8,-5 13,-10l0 -81zm62 -45l0 111c0,14 0,26 1,35 0,10 1,18 2,24l-57 16 -6 -17c-8,6 -15,10 -23,13 -7,3 -15,4 -23,4 -23,0 -42,-9 -58,-27 -15,-19 -23,-41 -23,-68 0,-29 9,-53 26,-71 18,-19 40,-28 67,-28 6,0 12,1 19,2 7,2 14,5 22,8l53 -2z"/>
  <path id="3" class="fil0" d="M686 290l-62 0 0 -178 58 0 1 31c7,-12 15,-21 25,-27 9,-5 21,-8 35,-8l5 0 0 66 -6 0 -7 0c-19,0 -32,2 -39,6 -7,5 -10,15 -10,32l0 78z"/>
  <path id="4" class="fil0" d="M777 46c0,-9 3,-17 9,-24 7,-7 15,-10 24,-10 10,0 18,3 25,10 6,6 9,14 9,24 0,9 -3,18 -10,24 -6,7 -14,10 -24,10 -9,0 -17,-3 -23,-10 -7,-7 -10,-15 -10,-24zm65 244l-63 0 0 -178 63 -8 0 186z"/>
  <path id="5" class="fil0" d="M950 290l-62 0 0 -178 57 0 0 30c10,-12 20,-20 30,-26 11,-6 23,-9 35,-9 19,0 33,6 43,16 10,11 14,27 14,48l0 119 -61 0 0 -102c0,-9 -2,-16 -6,-21 -3,-5 -9,-7 -17,-7 -10,0 -18,3 -24,11 -6,7 -9,17 -9,31l0 88z"/>
  <path id="6" class="fil0" d="M1227 157c-4,-2 -7,-3 -11,-4 -3,-1 -6,-2 -10,-2 -11,0 -21,5 -29,15 -8,10 -12,22 -12,37 0,14 3,25 10,35 7,9 16,14 26,14 4,0 8,-2 13,-4 4,-2 8,-5 13,-10l0 -81zm62 -45l0 161c0,16 -1,28 -3,37 -1,8 -4,15 -7,22 -8,15 -19,25 -33,33 -14,7 -31,11 -51,11 -12,0 -24,-2 -36,-4 -12,-3 -25,-7 -39,-13l-1 -49c13,7 25,12 36,16 11,3 21,5 30,5 14,0 25,-4 33,-10 7,-7 11,-16 11,-28l0 -12c-7,4 -14,8 -21,10 -7,2 -14,3 -22,3 -25,0 -46,-8 -61,-25 -15,-17 -23,-39 -23,-67 0,-28 9,-52 26,-70 17,-19 40,-28 66,-28 6,0 13,1 20,2 6,2 14,5 22,8l53 -2z"/>
  <path id="7" class="fil0" d="M1336 375l0 -263 61 0c7,-2 13,-4 19,-5 6,-1 12,-2 18,-2 26,0 47,9 64,27 16,18 25,40 25,68 0,29 -9,53 -27,71 -18,18 -42,27 -71,27 -3,0 -7,-1 -12,-1 -4,0 -9,-1 -16,-2l0 70 -61 10zm61 -126c5,1 9,2 12,2 3,1 6,1 8,1 12,0 22,-5 30,-15 8,-10 12,-22 12,-37 0,-14 -3,-26 -11,-35 -7,-9 -16,-14 -27,-14 -3,0 -6,1 -10,1 -4,1 -8,2 -14,4l0 93z"/>
  <path id="8" class="fil0" d="M1673 157c-4,-2 -7,-3 -11,-4 -3,-1 -6,-2 -9,-2 -12,0 -22,5 -30,15 -8,10 -12,22 -12,37 0,14 3,25 10,35 8,9 16,14 26,14 4,0 8,-1 13,-4 4,-2 8,-5 13,-10l0 -81zm62 -45l0 111c0,14 0,26 1,35 0,10 1,18 2,24l-57 16 -6 -17c-8,6 -15,10 -23,13 -7,3 -15,4 -23,4 -23,0 -42,-9 -58,-27 -15,-19 -23,-41 -23,-68 0,-29 9,-53 26,-71 18,-19 40,-28 67,-28 6,0 12,1 19,2 7,2 14,5 22,8l53 -2z"/>
  <path id="9" class="fil0" d="M1844 290l-62 0 0 -178 57 0 0 30c9,-12 20,-20 30,-26 11,-6 22,-9 35,-9 19,0 33,6 43,16 9,11 14,27 14,48l0 119 -61 0 0 -102c0,-9 -2,-16 -6,-21 -4,-5 -9,-7 -17,-7 -11,0 -19,3 -25,11 -5,7 -8,17 -8,31l0 88z"/>
  <path id="10" class="fil0" d="M2120 157c-3,-2 -7,-3 -10,-4 -3,-1 -7,-2 -10,-2 -12,0 -22,5 -30,15 -8,10 -12,22 -12,37 0,14 4,25 11,35 7,9 16,14 26,14 4,0 8,-1 12,-3 4,-1 9,-4 13,-7l0 -85zm62 -157l0 290 -54 8 -2 -14c-9,5 -17,8 -26,11 -8,2 -17,3 -26,3 -24,0 -44,-8 -58,-25 -14,-16 -21,-39 -21,-68 0,-30 9,-55 25,-73 16,-18 38,-28 65,-28 6,0 12,1 18,2 6,2 12,4 17,6l0 -104 62 -8z"/>
  <path id="11" class="fil0" d="M2344 157c-4,-2 -8,-3 -11,-4 -3,-1 -7,-2 -10,-2 -12,0 -21,5 -29,15 -8,10 -13,22 -13,37 0,14 4,25 11,35 7,9 16,14 26,14 4,0 8,-1 12,-4 5,-2 9,-5 14,-10l0 -81zm61 -45l0 111c0,14 1,26 1,35 1,10 1,18 2,24l-57 16 -5 -17c-8,6 -16,10 -23,13 -7,3 -15,4 -23,4 -23,0 -43,-9 -58,-27 -16,-19 -23,-41 -23,-68 0,-29 8,-53 26,-71 17,-19 39,-28 66,-28 6,0 13,1 19,2 7,2 14,5 23,8l52 -2z"/>
  <path id="12" class="fil0" d="M2453 261c0,-9 4,-17 10,-24 6,-6 14,-10 23,-10 10,0 18,4 25,10 6,7 9,14 9,24 0,9 -3,17 -10,24 -6,6 -14,9 -24,9 -9,0 -16,-3 -23,-10 -6,-6 -10,-14 -10,-23z"/>
  <path id="13" class="fil0" d="M2620 201c0,15 4,27 10,36 7,10 15,14 25,14 10,0 18,-4 25,-14 6,-9 10,-21 10,-36 0,-15 -4,-27 -10,-37 -7,-9 -15,-14 -25,-14 -10,0 -18,5 -25,14 -6,10 -10,22 -10,37zm-63 0c0,-28 10,-52 28,-70 19,-18 42,-27 70,-27 28,0 52,9 70,27 19,18 28,42 28,70 0,28 -9,51 -28,70 -18,18 -42,27 -70,27 -28,0 -51,-9 -70,-27 -18,-19 -28,-42 -28,-70z"/>
  <path id="14" class="fil0" d="M2851 290l-62 0 0 -178 58 0 1 31c7,-12 16,-21 25,-27 10,-5 21,-8 36,-8l5 0 0 66 -7 0 -7 0c-19,0 -32,2 -39,6 -6,5 -10,15 -10,32l0 78z"/>
  <path id="15" class="fil0" d="M3060 157c-3,-2 -7,-3 -10,-4 -4,-1 -7,-2 -10,-2 -12,0 -22,5 -30,15 -8,10 -12,22 -12,37 0,14 4,25 11,35 7,9 15,14 26,14 3,0 8,-2 12,-4 5,-2 9,-5 13,-10l0 -81zm62 -45l0 161c0,16 -1,28 -2,37 -2,8 -4,15 -8,22 -7,15 -18,25 -32,33 -14,7 -31,11 -51,11 -12,0 -24,-2 -36,-4 -13,-3 -26,-7 -39,-13l-1 -49c13,7 25,12 36,16 10,3 21,5 30,5 14,0 25,-4 32,-10 8,-7 12,-16 12,-28l0 -12c-8,4 -15,8 -22,10 -6,2 -14,3 -22,3 -25,0 -45,-8 -60,-25 -16,-17 -24,-39 -24,-67 0,-28 9,-52 27,-70 17,-19 39,-28 66,-28 6,0 12,1 19,2 7,2 14,5 22,8l53 -2z"/>
 </g>
</svg>
